<svg width="148" height="48" viewBox="-1 -1 150 50" fill="none" xmlns="http://www.w3.org/2000/svg">
<g clip-path="url(#clip0_674_4084)">
<path fill-rule="evenodd" clip-rule="evenodd" d="M0.928599 21.3152C8.85122 13.8838 19.9461 15.7946 28.69 20.2229C36.0114 23.9937 47.27 28.5293 53.9366 21.479C54.0466 23.1188 53.8829 24.8122 53.4455 26.5057C52.898 28.7467 51.3682 30.714 51.3682 30.714C44.1541 38.3655 28.8537 36.5056 23.0056 27.327C16.9402 17.7619 6.88666 15.741 0 22.8987C0.928599 20.6577 -0.217389 23.4999 0.928599 21.3152Z" fill="#004B85"/>
<path fill-rule="evenodd" clip-rule="evenodd" d="M46.8332 20.9313L46.7795 20.4402C45.3598 12.2975 39.6755 6.01469 32.4077 3.38993V3.0625C40.6041 5.13977 46.342 11.4226 47.9819 20.6576L48.0355 20.875C47.6517 20.9286 47.2706 20.9286 46.8332 20.9286V20.9313ZM3.22391 29.7852C3.0602 28.6929 2.95016 27.6006 2.89648 26.5056C2.95016 27.0531 3.00652 27.5979 3.11387 28.1454C5.24482 40.1689 16.7208 48.2016 28.798 46.1243C35.0271 44.9756 40.1639 41.4249 43.4435 36.5055L45.5208 35.9043C42.2412 41.8597 36.3958 46.3417 29.1281 47.5977C16.3961 49.8387 5.52125 42.5146 3.22659 29.7825L3.22391 29.7852Z" fill="#004B85"/>
<path fill-rule="evenodd" clip-rule="evenodd" d="M7.1582 24.1015V23.2266C10.929 23.7741 15.3009 25.3038 20.8752 32.0805C23.771 35.6311 30.494 37.9285 37.598 37.1636C34.3748 40.2232 30.0028 42.1367 25.1934 42.1367C15.2472 42.1367 7.16089 34.0477 7.16089 24.1042L7.1582 24.1015Z" fill="#008C44"/>
<path fill-rule="evenodd" clip-rule="evenodd" d="M57.3012 0L56.013 2.79385H57.0865L59.2335 0H57.3012ZM57.6232 3.59899H56.335L50.75 16.7014H52.6287L54.2926 12.834H59.824L61.5416 16.7014H63.474L57.6206 3.59899H57.6232ZM56.9255 6.44383L59.0725 11.17H54.9904L56.9228 6.44383H56.9255Z" fill="#004B85"/>
<path fill-rule="evenodd" clip-rule="evenodd" d="M74.648 11.065H70.7807V12.5143H72.9814V14.876C72.1762 15.0907 71.3711 15.3054 70.5123 15.3054C67.7721 15.3054 65.8397 13.5341 65.8397 10.955C65.8397 8.37582 67.7721 6.6045 70.2976 6.6045C71.6395 6.6045 73.0377 6.98023 74.3796 7.7317V6.06774C72.6083 5.31627 71.6421 5.10156 70.2976 5.10156C66.8059 5.10156 64.1758 7.62435 64.1758 11.0086C64.1758 14.3929 66.7522 16.8084 70.2439 16.8084C71.8542 16.8084 73.0914 16.54 74.648 15.8959V11.0623V11.065Z" fill="#004B85"/>
<path fill-rule="evenodd" clip-rule="evenodd" d="M87.1587 5.20703H85.5484V11.8656C85.5484 12.9391 85.3874 13.7979 84.7969 14.3884C84.3138 14.9251 83.4014 15.3009 82.1131 15.3009C81.1469 15.3009 80.2881 14.9788 79.644 14.3347C79.1609 13.7979 78.9462 13.2612 78.9462 11.9729V5.20703H77.3359V12.3487C77.3359 15.4646 79.6977 16.8065 82.1158 16.8065C85.5001 16.8065 87.1641 14.9815 87.1641 12.1876V5.20703H87.1587Z" fill="#004B85"/>
<path fill-rule="evenodd" clip-rule="evenodd" d="M94.4089 5.15625H93.228L88.2871 16.702H90.0047L91.454 13.3177H96.2876L97.8442 16.702H99.5081L94.4062 5.15625H94.4089ZM93.7648 7.67903L95.6434 11.8148H92.0444L93.7621 7.67903H93.7648Z" fill="#004B85"/>
<path fill-rule="evenodd" clip-rule="evenodd" d="M106.762 5.90671C105.957 5.36994 105.099 5.10156 104.186 5.10156C102.093 5.10156 100.748 6.28244 100.748 8.11012C100.748 11.2797 105.689 11.5481 105.689 13.9098C105.689 14.554 105.099 15.3591 103.81 15.3591C102.683 15.3591 101.663 14.7687 100.802 13.6951V15.7885C101.768 16.4863 102.788 16.8084 104.025 16.8084C105.85 16.8084 107.195 15.5201 107.195 13.7461C107.195 10.0935 102.254 10.0935 102.254 7.89273C102.254 7.08758 103.005 6.55082 104.079 6.55082C104.83 6.55082 105.796 6.8192 106.762 7.7317V5.90671Z" fill="#004B85"/>
<path fill-rule="evenodd" clip-rule="evenodd" d="M111 16.5012H113.469C115.638 16.5012 116.904 14.9339 116.904 13.2484C116.904 11.7428 115.879 10.0547 113.469 10.0547H111V16.5012ZM111.904 10.8974H113.351C115.157 10.8974 115.941 11.9817 115.941 13.2484C115.941 14.0321 115.458 15.6585 113.351 15.6585H111.904V10.8974Z" fill="#004B85"/>
<path fill-rule="evenodd" clip-rule="evenodd" d="M42.8232 19.8274C42.8957 20.1467 42.9547 20.4124 43.0164 20.6808C39.2188 20.976 34.6161 20.4446 27.6892 15.0609C24.0821 12.2322 17.021 11.4726 10.2578 13.7807C12.7296 10.0878 16.5755 7.25906 21.2668 6.20164C30.9688 4.01433 40.6386 10.1254 42.8232 19.83V19.8274Z" fill="#9FDDF9"/>
<path fill-rule="evenodd" clip-rule="evenodd" d="M133.731 23.9402L135.664 28.2799H131.938L133.731 23.9402ZM134.365 21.3047H133.151L128.004 33.3577H129.762L131.273 29.8258H136.369L137.969 33.3577H139.727L134.367 21.3047H134.365Z" fill="#004B85"/>
<path fill-rule="evenodd" clip-rule="evenodd" d="M113.853 21.3281H112.085V28.4885C112.085 29.6426 111.94 30.5443 111.309 31.175C110.751 31.7333 109.777 32.168 108.424 32.168C107.361 32.168 106.475 31.8245 105.772 31.1214C105.214 30.5631 105.034 29.9861 105.034 28.5959V21.3281H103.266V28.9743C103.266 32.3291 105.791 33.7918 108.386 33.7918C112.047 33.7918 113.851 31.8057 113.851 28.7945V21.3281H113.853Z" fill="#004B85"/>
<path fill-rule="evenodd" clip-rule="evenodd" d="M126.502 27.64H122.441V29.1993H124.765V31.6818C123.931 31.9475 123.08 32.1595 122.14 32.1595C119.269 32.1595 117.245 30.2621 117.245 27.5675C117.245 24.873 119.285 22.9379 121.91 22.9379C123.364 22.9379 124.835 23.3459 126.255 24.1269V22.3717C124.357 21.5746 123.364 21.3438 121.945 21.3438C118.257 21.3438 115.455 24.0571 115.455 27.6212C115.455 31.1853 118.187 33.7591 121.894 33.7591C123.579 33.7591 124.891 33.4719 126.504 32.7634V27.6373L126.502 27.64Z" fill="#004B85"/>
<path fill-rule="evenodd" clip-rule="evenodd" d="M142.524 21.2891H140.766V33.2991H147.8V31.7479H142.507L142.524 21.2891Z" fill="#004B85"/>
<path fill-rule="evenodd" clip-rule="evenodd" d="M101.034 21.3516H91.6621V22.9028H95.5429V33.3589H97.1532V22.9028H101.034V21.3516Z" fill="#004B85"/>
<path fill-rule="evenodd" clip-rule="evenodd" d="M121.422 10.0312H118.043V16.4053H121.5V15.5841H118.899V13.6034H121.333V12.7795H118.899V10.8552H121.422V10.0312Z" fill="#004B85"/>
<path fill-rule="evenodd" clip-rule="evenodd" d="M70.664 27.4916C70.664 24.8481 72.5238 22.9104 75.0252 22.9104C77.5265 22.9104 79.4025 24.8481 79.4025 27.4916C79.4025 30.1352 77.5426 32.0729 75.0252 32.0729C72.5077 32.0729 70.664 30.1164 70.664 27.4916ZM69 27.4916C69 30.7525 71.3215 33.6617 74.9903 33.6617C78.659 33.6617 81.0611 30.7337 81.0611 27.4916C81.0611 24.2496 78.7235 21.3242 75.0225 21.3242C71.3215 21.3242 69 24.161 69 27.4916Z" fill="#004B85"/>
<path fill-rule="evenodd" clip-rule="evenodd" d="M83.2175 21.3464V33.2277H84.9459V28.0399H85.6142C86.5079 28.0399 87.2325 28.319 88.7945 30.772L90.3565 33.225H92.4203C91.583 32.0548 91.3039 31.663 90.802 30.882C89.8546 29.3764 89.24 28.2599 88.1235 27.5353C89.4064 27.0334 90.131 26.0297 90.131 24.6341C90.131 22.5703 88.6254 21.3438 86.2261 21.3438H83.2148L83.2175 21.3464ZM84.9459 22.7984H86.006C87.6807 22.7984 88.349 23.4666 88.349 24.5831C88.4053 25.5869 87.8471 26.5342 86.006 26.5342H84.9459V22.7984Z" fill="#004B85"/>
<path fill-rule="evenodd" clip-rule="evenodd" d="M59.3281 19.3242V33.3713H61.3732V27.2388H62.1649C64.6474 27.1556 67.5057 26.2109 67.5057 23.2157C67.5057 20.7762 65.7263 19.3242 62.8895 19.3242H59.3281ZM61.3732 21.0392H62.6265C64.6045 21.0392 65.3962 21.8309 65.3962 23.1487C65.4633 24.3349 64.8031 25.4567 62.6265 25.4567H61.3732V21.0392Z" fill="#004B85"/>
</g>
<defs>
<clipPath id="clip0_674_4084">
<rect width="147.8" height="48" fill="white"/>
</clipPath>
</defs>
</svg>
