<svg xmlns="http://www.w3.org/2000/svg" viewBox="0 0 655 165" role="img" aria-label="Água Monchique">
  <defs>
    <linearGradient id="linear-gradient" x1="332.71" y1="64.22" x2="447.37" y2="64.22" gradientUnits="userSpaceOnUse">
      <stop offset="0" stop-color="#e6007e" />
      <stop offset="1" stop-color="#951b81" />
    </linearGradient>
  </defs>
  <g transform="translate(-355 10) scale(1.1)">
    <path d="M390,128.45A57.42,57.42,0,0,1,333,75.68a4.06,4.06,0,0,1-.09-.7c-.05-.67-.07-1.33-.08-2l0-.57c0-.58-.05-.93-.05-1.29,0-.16,0-.31,0-.47A53.34,53.34,0,0,1,341.35,41c7.59-11.38,27.4-28.3,38.54-37.38a16.12,16.12,0,0,1,20.29,0c11.14,9.08,30.95,26,38.55,37.38a53.4,53.4,0,0,1,8.62,29.67c0,.16,0,.32,0,.48,0,.36,0,.71-.05,1.07v.21l0,.56c0,.68,0,1.35-.08,2a5.51,5.51,0,0,1-.08.71A57.44,57.44,0,0,1,390,128.45Z" style="fill: url(#linear-gradient)" />
    <g>
      <path d="M374.67,103.93a2.87,2.87,0,0,1-2.26-4.63l4.74-6.1a2.87,2.87,0,1,1,4.53,3.53l-4.75,6.09A2.84,2.84,0,0,1,374.67,103.93Z" style="fill: #fff" />
      <path d="M397.08,85.91a12.23,12.23,0,0,0,11.63,7.76c6.76,0,12.26-5.09,12.26-11.34S415.47,71,408.71,71H397.35a2.85,2.85,0,0,1-2.85-2.86,3,3,0,0,1,.14-.91l5.08-16.89a2.86,2.86,0,0,1,2.69-1.92H422a2.86,2.86,0,1,1,0,5.72H404.54l-3.35,11.15h7.52c9.91,0,18,7.65,18,17.06s-8.07,17.06-18,17.06a18,18,0,0,1-17-11.56h0a2.63,2.63,0,0,1-.18-1,2.86,2.86,0,0,1,5.55-1Z" style="fill: #fff" />
      <path d="M387.19,61.77A18.39,18.39,0,1,0,368.8,80.16a16.56,16.56,0,0,0,1.73-.09L359,94.87a2.87,2.87,0,1,0,4.53,3.52l19.68-25.16h0A18.27,18.27,0,0,0,387.19,61.77ZM368.8,74.39a12.63,12.63,0,1,1,12.63-12.62A12.62,12.62,0,0,1,368.8,74.39Z" style="fill: #fff" />
      <path d="M397.12,32.11a5.39,5.39,0,0,0-5.39,5.4v8.32a.92.92,0,0,0,1.84,0V41.56a5.39,5.39,0,1,0,3.55-9.45Zm0,9a3.56,3.56,0,1,1,3.56-3.55A3.55,3.55,0,0,1,397.12,41.06Z" style="fill: #fff" />
      <path d="M412.65,29a.92.92,0,0,0-.92.92v5.12h-5.26V30a.92.92,0,1,0-1.83,0V42a.92.92,0,1,0,1.83,0V36.92h5.26V42a.92.92,0,0,0,1.84,0V30A.92.92,0,0,0,412.65,29Z" style="fill: #fff" />
    </g>
  </g>
  <g transform="translate(158 -110) scale(.95)">
    <path d="M239.44,235.75a27.45,27.45,0,1,1,19.2-47.05,3.14,3.14,0,1,1-4.39,4.48,21.18,21.18,0,1,0,.16,30.09,3.14,3.14,0,0,1,4.44,4.44A27.24,27.24,0,0,1,239.44,235.75Z" style="fill: #245ba7" />
    <path d="M489.14,235.69A27.45,27.45,0,1,1,516.59,208a3.14,3.14,0,0,1-3.14,3.17H468.17a21.16,21.16,0,0,0,21,18.29h0a3.14,3.14,0,0,1,0,6.28Zm-20.9-30.84h41.81a21.18,21.18,0,0,0-41.81,0Z" style="fill: #245ba7" />
    <path d="M61,180.82a22.38,22.38,0,0,0-19.28,11A22.4,22.4,0,0,0,0,203.24v29.41a3.14,3.14,0,1,0,6.27,0V203.24a16.15,16.15,0,0,1,32.3,0v29.4a3.14,3.14,0,0,0,6.27,0v-29.4a16.15,16.15,0,0,1,32.3,0v29.34a3.14,3.14,0,1,0,6.27,0V203.24A22.44,22.44,0,0,0,61,180.82Z" style="fill: #245ba7" />
    <path d="M161.06,235.77a3.13,3.13,0,0,1-3.14-3.13v-29.4a22.42,22.42,0,1,1,44.84,0v29.34a3.14,3.14,0,1,1-6.27,0V203.24a16.15,16.15,0,0,0-32.3,0v29.4A3.13,3.13,0,0,1,161.06,235.77Z" style="fill: #245ba7" />
    <path d="M429.5,235.77a22.45,22.45,0,0,1-22.42-22.42V184a3.14,3.14,0,0,1,6.27,0v29.35a16.15,16.15,0,1,0,32.3,0V184a3.14,3.14,0,0,1,6.27,0v29.4A22.45,22.45,0,0,1,429.5,235.77Z" style="fill: #245ba7" />
    <path d="M291.55,180.82a22.31,22.31,0,0,0-16.15,6.9V162.88a3.14,3.14,0,0,0-6.28,0v69.76a3.14,3.14,0,0,0,6.28,0v-29.4a16.15,16.15,0,1,1,32.29,0v29.34a3.14,3.14,0,0,0,6.28,0V203.24A22.44,22.44,0,0,0,291.55,180.82Z" style="fill: #245ba7" />
    <path d="M369.44,180.8a27.45,27.45,0,1,0,21.17,44.89v27.79a3.14,3.14,0,0,0,6.28,0V208.24A27.48,27.48,0,0,0,369.44,180.8Zm0,48.61a21.17,21.17,0,1,1,21.17-21.17A21.19,21.19,0,0,1,369.44,229.41Z" style="fill: #245ba7" />
    <path d="M328.82,235.72a3.14,3.14,0,0,1-3.14-3.14V184a3.14,3.14,0,1,1,6.28,0v48.58A3.14,3.14,0,0,1,328.82,235.72Z" style="fill: #245ba7" />
    <path d="M120.64,180.88a27.45,27.45,0,1,0,27.45,27.45A27.45,27.45,0,0,0,120.64,180.88Zm0,48.61a21.17,21.17,0,1,1,21.16-21.16A21.16,21.16,0,0,1,120.64,229.49Z" style="fill: #245ba7" />
  </g>
</svg>
