<?xml version="1.0" encoding="UTF-8"?>
<svg width="75px" height="48px" viewBox="-1 -1 77 49" version="1.1" xmlns="http://www.w3.org/2000/svg" xmlns:xlink="http://www.w3.org/1999/xlink">
    <!-- Generator: Sketch 56.2 (81672) - https://sketch.com -->
    <title>Group 18</title>
    <desc>Created with Sketch.</desc>
    <g id="Menu-Principal/Footer" stroke="none" stroke-width="1" fill="none" fill-rule="evenodd">
        <g id="Particulares_footer" transform="translate(-136.000000, -56.000000)" fill="#DF0024" fill-rule="nonzero">
            <g id="Group">
                <g id="Group-18" transform="translate(136.000000, 56.000000)">
                    <path d="M29.9368421,45.953207 C26.5194079,46.9808561 22.6569079,47.7147509 18.9424342,47.7147509 C6.53782895,47.7147509 -7.10542736e-15,40.0810667 -7.10542736e-15,28.6285754 C-7.10542736e-15,17.2507509 6.53782895,9.5424 18.9424342,9.5424 C22.6569079,9.5424 26.5194079,10.2772772 29.9368421,11.3049263 L28.4506579,18.9386105 C25.1082237,17.9109614 22.8799342,17.4708211 20.2055921,17.4708211 C13.8167763,17.4708211 11.1424342,22.1689263 11.1424342,28.6285754 C11.1424342,35.089207 13.8167763,39.7873123 20.2055921,39.7873123 C22.8799342,39.7873123 25.1082237,39.3461895 28.4506579,38.3185404 L29.9368421,45.953207 Z" id="Fill-58"></path>
                    <path d="M46.0060855,18.2049123 L46.0060855,36.7772632 C46.0060855,39.2736842 47.7143092,40.0075789 49.3495066,40.0075789 C50.0916118,40.0075789 51.6518092,39.9338947 52.5429276,39.7138246 L52.5429276,47.1274386 C50.3886513,47.4948772 46.6751645,47.7149474 44.8919408,47.7149474 C37.1669408,47.7149474 35.3837171,43.6043509 35.3837171,37.8049123 L35.3837171,18.2049123 L35.3837171,10.2764912 L35.3837171,5.49094737 L46.0060855,-3.83693077e-13 L46.0060855,10.2764912 L52.5429276,10.2764912 L52.5429276,18.2049123 L46.0060855,18.2049123 Z" id="Fill-60"></path>
                    <path d="M68.3119737,18.2049123 L68.3119737,36.7772632 C68.3119737,39.2736842 70.0201974,40.0075789 71.6553947,40.0075789 C72.3975,40.0075789 73.9576974,39.9338947 74.8488158,39.7138246 L74.8488158,47.1274386 C72.6945395,47.4948772 68.9800658,47.7149474 67.1978289,47.7149474 C59.4718421,47.7149474 57.6896053,43.6043509 57.6896053,37.8049123 L57.6896053,5.49094737 L68.3119737,-3.83693077e-13 L68.3119737,10.2764912 L74.8488158,10.2764912 L74.8488158,18.2049123 L68.3119737,18.2049123 Z" id="Fill-62"></path>
                </g>
            </g>
        </g>
    </g>
</svg>