<svg width="500" height="125" viewBox="-1 -0.05 502 126.6" fill="none" xmlns="http://www.w3.org/2000/svg">
<path d="M83.362 59.6052L80.5613 59.925L79.6278 85.39L25.6119 83.4105L30.2019 124.573L154.761 110.708L148.269 52.3789L83.3706 59.6138L83.362 59.6052ZM0 82.4683L25.6119 83.4019L23.7016 66.2437L80.544 59.925L82.6013 3.87784L2.97351 0.964844L0 82.477V82.4683Z" fill="url(#paint0_linear_6607_11894)"/>
<mask id="mask0_6607_11894" style="mask-type:luminance" maskUnits="userSpaceOnUse" x="0" y="0" width="155" height="125">
<path d="M83.362 59.6052L80.5613 59.925L79.6278 85.39L25.6119 83.4105L30.2019 124.573L154.761 110.708L148.269 52.3789L83.3706 59.6138L83.362 59.6052ZM0 82.4683L25.6119 83.4019L23.7016 66.2437L80.544 59.925L82.6013 3.87784L2.97351 0.964844L0 82.477V82.4683Z" fill="white"/>
</mask>
<g mask="url(#mask0_6607_11894)">
<path d="M154.761 0.964844H0V124.573H154.761V0.964844Z" fill="url(#paint1_linear_6607_11894)"/>
</g>
<path d="M191.117 8.42188H205.717V81.7742H247.683V94.7919H191.117V8.42188Z" fill="#1F2526"/>
<path d="M247.698 104.884H257.673C260.595 104.884 262.54 104.158 263.638 101.478L265.825 95.5141L241.008 32.3789H256.212L272.273 77.6298H272.999L288.083 32.3789H302.924L276.889 102.326C273.846 110.719 269.956 116.069 259.618 116.069H247.698V104.875V104.884Z" fill="#1F2526"/>
<path d="M306.805 82.1333L342.323 45.0336V44.1779H307.652V32.3789H359.472V44.9039L324.075 82.1246V82.9804H360.207V94.7794H306.805V82.1246V82.1333Z" fill="#1F2526"/>
<path d="M363.648 63.5223C363.648 44.0562 375.568 31.2891 394.542 31.2891C413.515 31.2891 424.588 44.0648 424.588 61.9404C424.588 63.2802 424.588 65.4671 424.467 67.0489H377.755C377.997 78.6059 384.083 84.1985 394.421 84.1985C402.33 84.1985 407.197 81.2768 409.383 74.3444H423.741C420.335 87.7252 409.634 95.8764 394.793 95.8764C375.698 95.8764 363.648 82.9797 363.648 63.5223ZM409.988 57.2036C409.383 47.9546 404.275 42.725 394.3 42.725C384.93 42.725 378.974 47.2285 377.997 57.2036H409.988Z" fill="#1F2526"/>
<path d="M432.562 32.3789H445.701V43.5728H446.427C449.228 36.0353 455.063 32.3789 463.577 32.3789H468.443V46.2437L459.324 46.1228C451.778 46.1228 446.92 50.1335 446.92 61.3274V94.7794H432.562V32.3789Z" fill="#1F2526"/>
<path d="M499.997 31.7087C499.936 33.4807 499.564 35.0884 498.882 36.5233C498.207 37.9582 497.317 39.1683 496.211 40.171C495.104 41.1651 493.842 41.9258 492.416 42.4444C490.99 42.963 489.512 43.1964 487.964 43.1359C486.253 43.0754 484.697 42.7124 483.297 42.0641C481.896 41.4071 480.703 40.5341 479.709 39.4449C478.724 38.3558 477.963 37.0679 477.436 35.607C476.909 34.1376 476.675 32.5644 476.736 30.8702C476.796 29.0982 477.168 27.4904 477.851 26.0555C478.525 24.6206 479.416 23.4105 480.522 22.4078C481.628 21.4138 482.899 20.6531 484.334 20.1344C485.769 19.6158 487.264 19.3824 488.829 19.4429C490.367 19.5035 491.837 19.8406 493.22 20.4629C494.603 21.0853 495.804 21.9324 496.833 23.0042C497.862 24.0761 498.657 25.3554 499.227 26.8335C499.798 28.3116 500.049 29.9366 499.988 31.7173L499.997 31.7087ZM497.464 31.6222C497.516 30.1873 497.334 28.8562 496.911 27.6374C496.487 26.4186 495.882 25.3554 495.096 24.4651C494.3 23.5661 493.367 22.8659 492.286 22.3473C491.206 21.8287 490.03 21.552 488.768 21.5088C487.48 21.4656 486.27 21.6558 485.146 22.088C484.023 22.5202 483.029 23.1598 482.173 23.9896C481.317 24.8281 480.634 25.8394 480.124 27.0236C479.614 28.2078 479.338 29.5217 479.286 30.9566C479.234 32.305 479.398 33.5844 479.779 34.7772C480.159 35.9788 480.729 37.0333 481.49 37.9496C482.251 38.8658 483.176 39.6005 484.282 40.1624C485.38 40.7242 486.642 41.0268 488.051 41.0786C489.321 41.1219 490.506 40.9317 491.621 40.4995C492.736 40.0673 493.721 39.4277 494.577 38.5978C495.433 37.7594 496.116 36.7567 496.626 35.5811C497.136 34.4056 497.412 33.0917 497.464 31.6308V31.6222ZM485.812 37.9755L483.66 37.8977L484.135 24.7849L489.105 24.9664C490.687 25.0269 491.871 25.364 492.649 25.9863C493.427 26.6087 493.799 27.5855 493.747 28.908C493.704 30.0922 493.341 30.948 492.667 31.4666C491.992 31.9939 491.163 32.2878 490.194 32.357L493.661 38.2521L491.223 38.1656L488.042 32.4347L486.011 32.357L485.803 37.9669L485.812 37.9755ZM488.492 30.6282C488.889 30.6455 489.278 30.6368 489.65 30.6282C490.022 30.6109 490.341 30.5331 490.627 30.3948C490.912 30.2565 491.137 30.0577 491.318 29.7983C491.5 29.539 491.595 29.1674 491.612 28.6833C491.629 28.2857 491.552 27.9658 491.379 27.7238C491.206 27.4818 490.99 27.3003 490.722 27.162C490.454 27.0237 490.151 26.9372 489.814 26.894C489.477 26.8508 489.149 26.8248 488.837 26.8075L486.244 26.7125L486.106 30.5417L488.509 30.6282H488.492Z" fill="#1F2526"/>
<defs>
<linearGradient id="paint0_linear_6607_11894" x1="0" y1="62.7689" x2="154.761" y2="62.7689" gradientUnits="userSpaceOnUse">
<stop offset="0.13" stop-color="#F29B82"/>
<stop offset="0.39" stop-color="#FA601D"/>
<stop offset="0.52" stop-color="#F85B3B"/>
<stop offset="0.85" stop-color="#EE85FB"/>
<stop offset="0.88" stop-color="#EE8FFA"/>
<stop offset="0.95" stop-color="#EEA1FA"/>
<stop offset="1" stop-color="#EEA8FA"/>
</linearGradient>
<linearGradient id="paint1_linear_6607_11894" x1="0.523821" y1="62.9184" x2="155.31" y2="62.9184" gradientUnits="userSpaceOnUse">
<stop offset="0.13" stop-color="#F29B82"/>
<stop offset="0.39" stop-color="#FA601D"/>
<stop offset="0.52" stop-color="#F85B3B"/>
<stop offset="0.85" stop-color="#EE85FB"/>
<stop offset="0.88" stop-color="#EE8FFA"/>
<stop offset="0.95" stop-color="#EEA1FA"/>
<stop offset="1" stop-color="#EEA8FA"/>
</linearGradient>
</defs>
</svg>
