<?xml version="1.0" encoding="utf-8"?>
<!-- Generator: Adobe Illustrator 26.3.1, SVG Export Plug-In . SVG Version: 6.00 Build 0)  -->
<svg version="1.1" id="logotipo" xmlns="http://www.w3.org/2000/svg" xmlns:xlink="http://www.w3.org/1999/xlink" x="0px" y="0px"
	 viewBox="-1 -1 601.9000244 202.5" style="enable-background:new 0 0 599.9000244 288.8999634;" xml:space="preserve">
<style type="text/css">
	.st0{fill:url(#mag_00000179630817440677785680000017887141015989953666_);}
	.st1{fill:#425161;}
</style>
<linearGradient id="mag_00000166670571226290606660000011522640988944400310_" gradientUnits="userSpaceOnUse" x1="0" y1="134.9324646" x2="599.9000244" y2="134.9324646" gradientTransform="matrix(1 0 0 1 0 -35.2755737)">
	<stop  offset="0" style="stop-color:#00B3E0"/>
	<stop  offset="1" style="stop-color:#0064AF"/>
</linearGradient>
<path id="mag" style="fill:url(#mag_00000166670571226290606660000011522640988944400310_);" d="M392.6999817,125.2999878
	L301.2999878,154.5c-0.5,0.2000122-0.8999939,0.5-1.1000061,1l-15.5,38.2000122
	c-0.3999939,0.8999939,0.1000061,1.8999939,1,2.2000122c0.3999939,0.2000122,0.8000183,0.2000122,1.1999817,0l80.6000061-26.2000122
	l9.1000061,24.8999939c0.2999878,0.7000122,0.8999939,1.1000061,1.6000061,1.1000061h41
	c1,0,1.7000122-0.7999878,1.7000122-1.7000122c0-0.2000122,0-0.3999939-0.1000061-0.6000061l-26-67.1000061
	c-0.2999878-0.7000122-0.8999939-1.1000061-1.6000061-1.1000061L392.6999817,125.2999878 M152,3.3999939
	c-0.7000122,0-1.3000031,0.3999939-1.6000061,1.1000061l-46.3000031,101.6000061L57.7999954,4.5
	c-0.1999969-0.6999969-0.9000015-1.1000061-1.5999985-1.1000061h-54.5C0.6999969,3.3999939,0,4.1999969,0,5.0999908v0.1000061
	v188.8999786c0,1,0.8000031,1.7000122,1.6999969,1.7000122l0,0h37.5c1,0,1.6999969-0.7999878,1.6999969-1.7000122l0,0V57.3999939
	l47.8000031,113.8999939c0.1999969,0.7000122,0.7999954,1.1000061,1.5,1.2000122h27.6999969
	c0.6999969,0,1.3000031-0.3999939,1.5999985-1.1000061L167.2999878,57.5v136.7000122c0,1,0.8000031,1.7000122,1.7000122,1.7999878
	h37.8999939c0.8999939,0,1.6999969-0.7999878,1.6999969-1.7000122V5.3000031C208.6999817,4.4000092,208,3.5,207,3.4000092
	h-0.1000061H152V3.3999939z M298,3.3999939c-0.7000122,0-1.3999939,0.3999939-1.6000061,1.1000061l-73.1000061,189
	c-0.2999878,0.8999939,0.1000061,1.8999939,1,2.2000122c0.2000122,0.1000061,0.4000092,0.1000061,0.6000061,0.1000061h38.3999939
	l23.8999939-58.3999939L322.5,45.0000305l28.5,74.8000031c0.2999878,0.8999939,1.2999878,1.3999939,2.0999756,1.1000061
	l33.5-10.8999939C387.5,109.7000427,388,108.7000427,387.7000122,107.8000488v-0.1000061L348.5,4.4000397
	c-0.2000122-0.6999969-0.8999939-1.1000061-1.6000061-1.1000061H298V3.3999939z M415.5,99.5
	c0,60.6000061,46.1000061,99.7999878,102.4000244,99.7999878c31.0999756,0.5,60.7999268-12.6000061,81.5-35.8999939
	c0.2999268-0.2999878,0.3999634-0.7000122,0.5-1.2000122V84.9999847c0-0.8999939-0.7000732-1.6999969-1.7000732-1.6999969l0,0h-64
	c-1,0-13,33.5-13,33.5c0,1,0.8000488,1.6999969,1.7000732,1.6999969h36.6999512V148
	C547.9000244,157.6000061,533.2000122,162.7999878,518,162.7000122c-34.8999939,0-60.2999878-26.7999878-60.2999878-63.1999969
	S483,36.3000183,518,36.3000183c13.5999756-0.1000061,26.7999878,4.8999939,36.9000244,14.1000061
	c0.3999634,0.3999939,1.0999756,0.5,1.5999756,0.3000031l36.2999878-11.8000031
	c0.8999634-0.3000031,1.3999634-1.3000031,1.1000366-2.1999969c-0.1000366-0.1999969-0.1000366-0.3000031-0.2000732-0.3999939
	C578.5,16.1999969,554.4000244,0,517.9000244,0C461.6999817,0,415.5,38.6000061,415.5,99.5"/>
</svg>

