<svg width="185" height="54" viewBox="-1 -0.95 187 55.95" fill="none" xmlns="http://www.w3.org/2000/svg">
<g clip-path="url(#clip0_3_12)">
<path d="M184.339 26.7622L175.611 17.8745C175.169 17.424 174.569 17.1705 173.944 17.1697H170.422L169.925 16.6631C169.551 16.2804 169.107 15.9771 168.617 15.7706C168.128 15.5641 167.603 15.4586 167.073 15.4601H76.5949L63.8485 2.48234C63.4053 2.03363 62.8058 1.78177 62.1809 1.78177C61.5559 1.78177 60.9564 2.03363 60.5132 2.48234L59.3236 3.69379L56.9528 1.27938C56.1962 0.510743 55.1712 0.0790782 54.1025 0.0790782C53.0338 0.0790782 52.0088 0.510743 51.2522 1.27938L37.522 15.2535C37.4574 15.3193 37.3807 15.3714 37.2963 15.4069C37.2118 15.4423 37.1214 15.4604 37.03 15.4601H12.7547C12.2253 15.4588 11.7009 15.5644 11.2119 15.7709C10.7229 15.9774 10.279 16.2806 9.90581 16.6631L1.17848 25.5508C0.424384 26.3216 0.000976563 27.3654 0.000976562 28.4535C0.000976562 29.5415 0.424384 30.5853 1.17848 31.3561L9.90581 40.241C10.279 40.6234 10.7229 40.9267 11.2119 41.1332C11.7009 41.3397 12.2253 41.4453 12.7547 41.444H39.6677C39.852 41.4439 40.0289 41.5182 40.1596 41.6506L51.2439 52.9301C52.0005 53.6987 53.0255 54.1304 54.0942 54.1304C55.1629 54.1304 56.1879 53.6987 56.9445 52.9301L59.3153 50.5157L60.5049 51.7271C60.9481 52.1758 61.5476 52.4277 62.1725 52.4277C62.7975 52.4277 63.397 52.1758 63.8402 51.7271L73.9489 41.4326H167.059C167.589 41.4342 168.114 41.3287 168.603 41.1222C169.093 40.9157 169.537 40.6123 169.911 40.2297L170.386 39.7457H173.927C174.237 39.7459 174.544 39.6837 174.83 39.5628C175.116 39.4418 175.376 39.2645 175.595 39.0409L184.322 30.156C184.762 29.7047 185.01 29.0941 185.01 28.4577C185.01 27.8213 184.762 27.2107 184.322 26.7594" fill="#008932"/>
<path fill-rule="evenodd" clip-rule="evenodd" d="M177.471 26.7509L168.746 17.8632C168.303 17.4137 167.704 17.1604 167.078 17.1584H72.2645L74.9884 20.7814H73.7376L55.766 2.48233C55.3228 2.03363 54.7233 1.78176 54.0983 1.78176C53.4734 1.78176 52.8739 2.03363 52.4307 2.48233L34.4646 20.7814H33.2139L35.9377 17.1584H12.7547C12.1292 17.1598 11.5297 17.4132 11.087 17.8632L2.35694 26.7509C1.91632 27.2022 1.66901 27.8128 1.66901 28.4492C1.66901 29.0856 1.91632 29.6962 2.35694 30.1475L11.0843 39.0324C11.3031 39.2557 11.563 39.4329 11.8492 39.5539C12.1353 39.6748 12.4421 39.7371 12.7519 39.7372H38.4142L37.9 39.0607L35.1789 35.4377H36.4297L52.4224 51.7384C52.8655 52.1871 53.4651 52.439 54.09 52.439C54.7149 52.439 55.3145 52.1871 55.7576 51.7384L71.7531 35.4377H73.0039L70.28 39.0607L69.7631 39.7457H167.073C167.698 39.7449 168.298 39.4914 168.74 39.0409L177.465 30.156C177.906 29.7047 178.153 29.0941 178.153 28.4577C178.153 27.8213 177.906 27.2107 177.465 26.7594" fill="#FFE600"/>
<path d="M156.481 23.4732H159.26V27.2236L162.181 23.4732H165.883L162.595 27.218L166.025 33.3997H162.595L160.694 29.3153L159.26 30.9768V33.3997H156.481V23.4732ZM147.309 23.4732H154.774V25.5933H150.088V27.1727H154.421V29.1965H150.088V31.1523H154.896V33.4167H147.309V23.4732ZM139.198 28.4577C139.198 29.4597 139.365 30.1786 139.704 30.6174C139.875 30.8226 140.088 30.9875 140.328 31.1005C140.568 31.2136 140.829 31.2722 141.094 31.2722C141.358 31.2722 141.619 31.2136 141.859 31.1005C142.099 30.9875 142.312 30.8226 142.483 30.6174C142.809 30.1871 142.975 29.4172 142.975 28.3077C142.975 27.3736 142.804 26.6905 142.461 26.2584C142.295 26.0476 142.083 25.8794 141.842 25.7673C141.6 25.6553 141.337 25.6024 141.072 25.6131C140.811 25.605 140.552 25.6604 140.317 25.7746C140.081 25.8888 139.876 26.0586 139.718 26.2697C139.379 26.7056 139.209 27.4331 139.209 28.4436M136.43 28.4294C136.43 26.8085 136.839 25.547 137.658 24.645C138.492 23.7421 139.621 23.2892 141.085 23.2892C142.55 23.2892 143.709 23.7478 144.529 24.6252C145.349 25.5027 145.746 26.7538 145.746 28.3501C145.782 29.3309 145.6 30.3073 145.213 31.2061C144.879 31.9243 144.346 32.5267 143.679 32.9384C142.917 33.3757 142.051 33.5902 141.177 33.5582C140.305 33.5894 139.439 33.4069 138.651 33.0261C137.957 32.6365 137.393 32.0452 137.03 31.3278C136.59 30.4294 136.377 29.433 136.41 28.4294M129.954 27.4812H131.13C131.379 27.46 131.625 27.4155 131.866 27.3482C132.041 27.3047 132.195 27.1981 132.3 27.0481C132.416 26.8831 132.477 26.6849 132.475 26.482C132.484 26.3462 132.464 26.2099 132.416 26.0828C132.368 25.9557 132.293 25.8408 132.197 25.7461C132.013 25.5706 131.666 25.4857 131.157 25.4857H129.934L129.954 27.4812ZM127.141 33.3997V23.4732H131.786C132.452 23.4467 133.118 23.5299 133.759 23.7195C134.221 23.8799 134.614 24.1991 134.871 24.6224C135.162 25.1049 135.307 25.6641 135.288 26.2301C135.299 26.7213 135.19 27.2078 134.971 27.6454C134.762 28.0401 134.459 28.3749 134.09 28.619C133.787 28.8037 133.456 28.9358 133.111 29.0096C133.37 29.096 133.615 29.2199 133.84 29.3776C134.005 29.5349 134.154 29.7094 134.284 29.8984C134.433 30.0907 134.564 30.2974 134.673 30.5155L136.01 33.3997H132.856L131.369 30.3626C131.251 30.0764 131.079 29.8167 130.863 29.5984C130.666 29.4469 130.426 29.3662 130.179 29.3691H129.934V33.3997H127.141ZM120.07 31.2684H121.493C121.853 31.3045 122.214 31.2037 122.505 30.9853C122.605 30.8883 122.683 30.7707 122.734 30.6403C122.786 30.5099 122.809 30.3699 122.802 30.2296C122.808 30.0971 122.784 29.965 122.734 29.8427C122.683 29.7205 122.607 29.611 122.511 29.522C122.212 29.3069 121.849 29.2066 121.485 29.2389H120.07V31.2684ZM120.07 27.368H121.282C121.604 27.4015 121.928 27.3139 122.191 27.1217C122.279 27.0266 122.348 26.9139 122.391 26.7906C122.435 26.6674 122.453 26.5363 122.444 26.4056C122.451 26.281 122.433 26.1563 122.389 26.0397C122.345 25.923 122.278 25.8172 122.191 25.7291C121.934 25.5383 121.618 25.4506 121.302 25.4829H120.07V27.368ZM117.252 23.4732H122.469C123.336 23.4732 124.006 23.711 124.467 24.1865C124.696 24.4149 124.876 24.6889 124.997 24.9912C125.117 25.2936 125.176 25.618 125.168 25.9442C125.18 26.4918 125.004 27.0266 124.67 27.4557C124.411 27.7623 124.075 27.9912 123.697 28.118C124.259 28.2369 124.763 28.5487 125.126 29.0012C125.444 29.4615 125.605 30.0153 125.585 30.5777C125.592 31.0614 125.48 31.5391 125.259 31.9675C125.052 32.3669 124.744 32.7029 124.367 32.9412C124.04 33.1202 123.681 33.23 123.311 33.2639C122.897 33.3332 122.479 33.3795 122.06 33.4026H117.252V23.4732ZM106.713 23.4732H109.314L112.708 28.9644V23.4732H115.345V33.3997H112.719L109.331 27.951V33.3997H106.713V23.4732ZM97.5405 23.4732H105.003V25.5933H100.337V27.1727H104.672V29.1965H100.337V31.1523H105.145V33.4167H97.5321L97.5405 23.4732ZM87.0093 23.4732H89.6136L93.0073 28.9644V23.4732H95.6338V33.3997H92.9989L89.6219 27.951V33.3997H86.9954L87.0093 23.4732ZM82.0981 29.6154L81.092 26.0405L80.0997 29.6097L82.0981 29.6154ZM82.6818 31.7637H79.491L79.063 33.3997H76.2169L79.6022 23.4732H82.6401L86.031 33.3997H83.1042L82.6818 31.7637ZM69.8381 27.4953H71.0138C71.2628 27.4742 71.5094 27.4296 71.7504 27.3623C71.935 27.3198 72.0969 27.2075 72.2034 27.0481C72.3192 26.8831 72.3806 26.6849 72.3785 26.482C72.3875 26.3462 72.3673 26.2099 72.3193 26.0828C72.2713 25.9557 72.1966 25.8408 72.1006 25.7461C71.9171 25.5706 71.5697 25.4857 71.0611 25.4857H69.8381V27.4953ZM67.0393 33.3997V23.4732H71.6837C72.3502 23.4467 73.0165 23.5299 73.657 23.7195C74.1187 23.8812 74.5107 24.2014 74.766 24.6252C75.0582 25.1074 75.2042 25.6667 75.1857 26.2329C75.1964 26.7244 75.0866 27.2109 74.8661 27.6482C74.6573 28.0429 74.3543 28.3777 73.985 28.6219C73.6825 28.8066 73.3518 28.9386 73.0067 29.0125C73.2655 29.0988 73.5108 29.2227 73.7349 29.3804C73.9014 29.5369 74.0505 29.7116 74.1796 29.9013C74.3287 30.0936 74.459 30.3002 74.5687 30.5183L75.9084 33.3997H72.7593L71.2723 30.3626C71.1548 30.0764 70.9829 29.8167 70.7665 29.5984C70.5698 29.4469 70.3293 29.3662 70.0827 29.3691H69.8381V33.3997H67.0393Z" fill="#006853"/>
<path d="M65.0548 23.4732H57.8589C57.731 22.241 57.3086 21.2975 56.5915 20.6427C55.8744 19.9879 54.9266 19.6577 53.7482 19.6521C52.8086 19.6249 51.8965 19.9769 51.2106 20.6314C50.4642 21.4371 49.9581 22.4423 49.7514 23.5298C49.5545 24.5065 49.4613 25.502 49.4734 26.499L49.5707 28.3275C49.6195 28.8813 49.7276 29.428 49.8931 29.9579C50.2767 31.1127 50.8761 31.9184 51.6914 32.3751C52.421 32.7379 53.2256 32.9165 54.0372 32.8959C54.5507 32.9217 55.0636 32.8338 55.5405 32.6384C56.0174 32.4429 56.4471 32.1445 56.7999 31.7637C57.3781 31.107 57.7486 30.1579 57.9117 28.9162H65.2049C64.9047 31.2052 64.1635 33.1299 62.9813 34.6904C61.802 36.2374 60.1952 37.3897 58.3675 37.9993C57.0095 38.451 55.588 38.6728 54.1595 38.6559C52.2088 38.6898 50.2724 38.311 48.4728 37.5436C46.8896 36.8698 45.4897 35.8162 44.3927 34.4725C43.6863 33.5413 43.124 32.5057 42.725 31.4014C42.1438 29.7457 41.8613 27.9966 41.8912 26.2386C41.8657 24.3011 42.2447 22.3802 43.003 20.6031C43.6796 18.999 44.7208 17.5817 46.0409 16.4678C46.9085 15.7571 47.8704 15.1748 48.8981 14.7383C50.3399 14.1588 51.8786 13.8704 53.4285 13.8892C56.0226 13.8892 58.2072 14.3609 59.9824 15.3044C61.7142 16.2026 63.1122 17.6501 63.9652 19.4285C64.5514 20.7031 64.9207 22.0698 65.0576 23.4704" fill="#006853"/>
<path d="M31.5935 23.4732H34.1867L37.5804 28.9644V23.4732H40.2069V33.3997H37.5804L34.2117 27.951V33.3997H31.5935V23.4732ZM26.6823 29.6154L25.6873 26.0405L24.695 29.6097L26.6823 29.6154ZM27.266 31.7637H24.0919L23.6555 33.3997H20.8094L24.1975 23.4732H27.2382L30.6235 33.3997H27.7079L27.266 31.7637ZM11.9515 23.4732H14.8726L16.9016 30.6174L18.9 23.4732H21.7294L18.383 33.3997H15.3646L11.9515 23.4732Z" fill="#006853"/>
</g>
<defs>
<clipPath id="clip0_3_12">
<rect width="185" height="54" fill="white"/>
</clipPath>
</defs>
</svg>
