<svg xmlns="http://www.w3.org/2000/svg" width="100%" height="100%" viewBox="0 0 147 44" fill="none" preserveAspectRatio="xMidYMid meet" aria-hidden="true" role="img">
  <g clip-path="url(#clip0_2751_146)">
    <path d="M58.9874 12.1825H58.2438V9.34608C57.8583 11.1361 56.4263 12.3753 54.2783 12.3753C52.1303 12.3753 49.2388 10.0621 49.2388 6.5647C49.2388 3.06733 51.3317 0.726562 54.4986 0.726562C57.6655 0.726562 58.8221 2.1861 58.8772 4.41671H58.1337C57.9684 2.68179 56.5089 1.49764 54.4986 1.49764C52.4883 1.49764 50.0649 3.4804 50.0649 6.5647C50.0649 9.64901 51.8274 11.6318 54.3334 11.6318C56.8394 11.6318 58.1612 9.70408 58.1612 7.85901V7.50101H54.4711V6.78501H58.9874V12.2101V12.1825Z" fill="#D6D5C9"/>
    <path d="M65.8443 0.919434C68.1575 0.919434 69.6171 2.1862 69.6171 4.08635C69.6171 5.9865 68.488 6.75758 67.0009 7.0605C68.1851 7.25327 68.7358 7.74896 69.2866 9.04326L70.636 12.1551H69.7272L68.5431 9.31865C67.9372 7.88665 67.2488 7.39096 65.0457 7.39096H62.5672V12.1551H61.7411V0.919434H65.8443ZM62.5672 1.63543V6.67496H65.7066C67.5242 6.67496 68.7634 5.51835 68.7634 4.08635C68.7634 2.65435 67.5517 1.63543 65.8443 1.63543H62.5672Z" fill="#D6D5C9"/>
    <path d="M73.3624 0.919434V7.6388C73.3624 10.31 74.6843 11.6043 76.7496 11.6043C78.815 11.6043 80.0542 10.2825 80.0542 7.6388V0.919434H80.8804V7.6388C80.8804 10.6956 79.3107 12.3754 76.7496 12.3754C74.1886 12.3754 72.5363 10.7231 72.5363 7.6388V0.919434H73.3624Z" fill="#D6D5C9"/>
    <path d="M83.9095 0.919434H88.2882C90.4086 0.919434 91.9783 2.37897 91.9783 4.27912C91.9783 6.17927 90.4086 7.6388 88.2882 7.6388H84.7357V12.1826H83.9095V0.919434ZM88.2882 6.89527C89.8854 6.89527 91.1246 5.79373 91.1246 4.25158C91.1246 2.70943 89.8854 1.60789 88.2882 1.60789H84.7357V6.86773H88.2882V6.89527Z" fill="#D6D5C9"/>
    <path d="M98.6426 0.726562C101.451 0.726562 103.682 2.95717 103.682 6.53717C103.682 10.1172 101.451 12.3478 98.6426 12.3478C95.8336 12.3478 93.603 10.1172 93.603 6.53717C93.603 2.95717 95.8336 0.726562 98.6426 0.726562ZM98.6426 1.4701C96.3844 1.4701 94.4567 3.34271 94.4567 6.53717C94.4567 9.73162 96.3569 11.6042 98.6426 11.6042C100.928 11.6042 102.828 9.73162 102.828 6.53717C102.828 3.34271 100.928 1.4701 98.6426 1.4701Z" fill="#D6D5C9"/>
    <path d="M88.0954 24.1342C87.1315 23.6936 85.1212 22.8399 82.9182 22.8399C80.7151 22.8399 79.1179 24.0792 79.1179 25.9793C79.1179 30.9362 89.4998 30.3304 89.4998 37.215C89.4998 44.0996 85.9198 43.2734 81.8717 43.2734C77.8236 43.2734 77.3829 42.7777 76.8322 42.64V40.4645C77.9888 41.0428 80.1643 41.8414 82.3123 41.8414C84.4603 41.8414 86.7185 40.5196 86.7185 37.8484C86.7185 32.5335 76.6394 33.3321 76.6394 26.7229C76.6394 20.1136 79.3106 21.4079 83.4965 21.4079C87.6823 21.4079 87.2417 21.7109 88.1505 21.9036V24.1067L88.0954 24.1342Z" fill="#D6D5C9"/>
    <path d="M94.7873 34.7089H101.92L98.3673 25.1256L94.7873 34.7089ZM96.3845 25.4836C96.6048 24.9052 96.8527 24.2994 96.8527 23.7762C96.8527 22.95 95.999 22.6746 94.4293 22.2891V21.7659H99.8268L107.951 42.9154H104.894L102.25 35.8931H94.3191L91.8407 42.9154H89.8579L96.357 25.456L96.3845 25.4836Z" fill="#D6D5C9"/>
    <path d="M143.943 32.3681C143.943 28.4025 143.723 22.647 138.849 22.647C133.974 22.647 133.699 28.017 133.699 32.3681C133.699 36.7191 133.919 42.0616 138.849 42.0616C143.778 42.0616 143.943 36.6916 143.943 32.3681ZM130.615 32.3681C130.615 25.6487 132.598 21.4353 138.849 21.4353C145.1 21.4353 147.028 26.1168 147.028 32.3681C147.028 38.6193 145.072 43.2733 138.849 43.2733C132.625 43.2733 130.615 38.6193 130.615 32.3681Z" fill="#D6D5C9"/>
    <path d="M114.092 32.7537V33.5523C118.828 33.5523 121.775 37.8207 122.133 42.9429H122.932V32.7537H114.092Z" fill="#D6D5C9"/>
    <path d="M118.057 41.8688C112.026 41.8688 110.346 36.5539 110.346 31.2665C110.346 25.9791 110.842 22.8398 115.744 22.8398C120.646 22.8398 119.765 24.9051 119.93 26.1444H123.014C122.821 23.5282 120.536 21.4353 115.827 21.4353C111.117 21.4353 107.262 25.511 107.262 31.5144C107.262 37.5177 110.154 43.2733 116.598 43.2733C123.042 43.2733 119.434 43.108 120.618 42.9153C120.591 42.4746 120.536 42.034 120.453 41.5934C119.572 41.8137 119.076 41.8688 118.057 41.8688Z" fill="#D6D5C9"/>
    <path d="M74.1609 21.2151H71.5448V42.9429H74.1609V21.2151Z" fill="#D6D5C9"/>
    <path d="M128.439 21.2151H125.823V42.9429H128.439V21.2151Z" fill="#D6D5C9"/>
    <path d="M53.0389 24.9605C52.1302 22.4545 51.9649 22.124 49.5691 21.7385V21.1877H54.8014L61.1903 38.95L67.7444 21.1877H69.6171L61.6034 42.9155H59.7583L53.0389 24.933V24.9605Z" fill="#D6D5C9"/>
    <path d="M5.72799 0.919434H4.81922C2.148 0.919434 0 3.06743 0 5.71112V38.1238C0 40.795 2.148 42.943 4.79168 42.943H5.70045C11.8691 39.8312 14.9809 30.8812 15.0084 21.9312C15.0084 12.9813 11.8691 4.03127 5.70045 0.919434H5.72799Z" fill="#A9FDAC"/>
    <path d="M37.2043 0.919434H13.9619C21.8379 5.35312 29.7414 12.1551 37.6174 21.9312C29.7414 31.7074 21.8379 38.5094 13.9619 42.943H37.2319C39.8756 42.943 42.0236 40.795 42.0236 38.1514V5.71112C42.0236 3.06743 39.8756 0.919434 37.2319 0.919434H37.2043Z" fill="#A9FDAC"/>
  </g>
  <defs>
    <clipPath id="clip0_2751_146">
      <rect width="147" height="42.5468" fill="white" transform="translate(0 0.726562)"/>
    </clipPath>
  </defs>
</svg>
